
<svg xmlns="http://www.w3.org/2000/svg" viewBox="0 0 24 24" fill="none" stroke="currentColor" stroke-width="1.6" stroke-linecap="butt" stroke-linejoin="miter" style="display:none">

  
  <symbol id="i-chat" viewBox="0 0 24 24">
    <path d="M4 5h16v11H10l-4 4v-4H4z"></path>
  </symbol>

  
  <symbol id="i-send" viewBox="0 0 24 24">
    <path d="M3 12 21 4l-3 16-5-6L3 12z"></path>
    <path d="m13 14 5-10"></path>
  </symbol>

  
  <symbol id="i-plus" viewBox="0 0 24 24">
    <path d="M12 5v14M5 12h14"></path>
  </symbol>

  
  <symbol id="i-x" viewBox="0 0 24 24">
    <path d="M6 6l12 12M18 6 6 18"></path>
  </symbol>

  
  <symbol id="i-check" viewBox="0 0 24 24">
    <path d="m4 12 5 5 11-12"></path>
  </symbol>

  
  <symbol id="i-chev-r" viewBox="0 0 24 24">
    <path d="m9 5 7 7-7 7"></path>
  </symbol>

  
  <symbol id="i-chev-l" viewBox="0 0 24 24">
    <path d="m15 5-7 7 7 7"></path>
  </symbol>

  
  <symbol id="i-chev-d" viewBox="0 0 24 24">
    <path d="m5 9 7 7 7-7"></path>
  </symbol>

  
  <symbol id="i-search" viewBox="0 0 24 24">
    <circle cx="11" cy="11" r="6"></circle>
    <path d="m20 20-4.5-4.5"></path>
  </symbol>

  
  <symbol id="i-user" viewBox="0 0 24 24">
    <circle cx="12" cy="8" r="4"></circle>
    <path d="M4 20c1.5-4 5-6 8-6s6.5 2 8 6"></path>
  </symbol>

  
  <symbol id="i-users" viewBox="0 0 24 24">
    <circle cx="9" cy="9" r="3.2"></circle>
    <path d="M2.5 19c1.2-3.2 4-5 6.5-5s5.3 1.8 6.5 5"></path>
    <circle cx="17.5" cy="7.5" r="2.8"></circle>
    <path d="M16 13.5c2.5-.2 4.6 1.2 5.5 4"></path>
  </symbol>

  
  <symbol id="i-briefcase" viewBox="0 0 24 24">
    <rect x="3" y="7" width="18" height="13"></rect>
    <path d="M9 7V5h6v2"></path>
    <path d="M3 12h18"></path>
  </symbol>

  
  <symbol id="i-doc" viewBox="0 0 24 24">
    <path d="M6 3h9l4 4v14H6z"></path>
    <path d="M15 3v4h4"></path>
  </symbol>

  
  <symbol id="i-folder" viewBox="0 0 24 24">
    <path d="M3 6h6l2 2h10v11H3z"></path>
  </symbol>

  
  <symbol id="i-settings" viewBox="0 0 24 24">
    <circle cx="12" cy="12" r="3"></circle>
    <path d="M12 3v3M12 18v3M3 12h3M18 12h3M5.5 5.5l2.1 2.1M16.4 16.4l2.1 2.1M5.5 18.5l2.1-2.1M16.4 7.6l2.1-2.1"></path>
  </symbol>

  
  <symbol id="i-bell" viewBox="0 0 24 24">
    <path d="M6 16V11a6 6 0 1 1 12 0v5l2 3H4z"></path>
    <path d="M10 21h4"></path>
  </symbol>

  
  <symbol id="i-arrow-up" viewBox="0 0 24 24">
    <path d="M12 20V4M5 11l7-7 7 7"></path>
  </symbol>

  
  <symbol id="i-arrow-r" viewBox="0 0 24 24">
    <path d="M4 12h16M13 5l7 7-7 7"></path>
  </symbol>

  
  <symbol id="i-clip" viewBox="0 0 24 24">
    <path d="M20 10 11 19a4 4 0 1 1-6-6l9-9a3 3 0 0 1 4 4l-9 9a2 2 0 1 1-3-3l8-8"></path>
  </symbol>

  
  <symbol id="i-mic" viewBox="0 0 24 24">
    <rect x="9" y="3" width="6" height="12" rx="3"></rect>
    <path d="M5 11a7 7 0 0 0 14 0M12 18v3M9 21h6"></path>
  </symbol>

  
  <symbol id="i-spark" viewBox="0 0 24 24">
    <path d="M12 3v6M12 15v6M3 12h6M15 12h6"></path>
  </symbol>

  
  <symbol id="i-shield" viewBox="0 0 24 24">
    <path d="M12 3 4 6v6c0 5 3.5 8 8 9 4.5-1 8-4 8-9V6z"></path>
  </symbol>

  
  <symbol id="i-clock" viewBox="0 0 24 24">
    <circle cx="12" cy="12" r="9"></circle>
    <path d="M12 7v5l3 2"></path>
  </symbol>

  
  <symbol id="i-trash" viewBox="0 0 24 24">
    <path d="M4 7h16M9 7V4h6v3M6 7l1 13h10l1-13"></path>
  </symbol>

  
  <symbol id="i-pencil" viewBox="0 0 24 24">
    <path d="M4 20h4L20 8l-4-4L4 16z"></path>
  </symbol>

  
  <symbol id="i-menu" viewBox="0 0 24 24">
    <path d="M4 7h16M4 12h16M4 17h16"></path>
  </symbol>

</svg>